<?xml version="1.0" encoding="UTF-8" standalone="no"?>
<svg
   width="1500"
   height="1500"
   version="1.1"
   id="svg8"
   xmlns:inkscape="http://www.inkscape.org/namespaces/inkscape"
   xmlns:sodipodi="http://sodipodi.sourceforge.net/DTD/sodipodi-0.dtd"
   xmlns="http://www.w3.org/2000/svg"
   xmlns:svg="http://www.w3.org/2000/svg">
  <sodipodi:namedview
     id="namedview8"
     pagecolor="#ffffff"
     bordercolor="#000000"
     borderopacity="0.25"
     inkscape:showpageshadow="2"
     inkscape:pageopacity="0.0"
     inkscape:pagecheckerboard="0"
     inkscape:deskcolor="#d1d1d1" />
  <defs
     id="defs2">
    <linearGradient
       id="stgra_6738"
       x1="0%"
       y1="0%"
       x2="100%"
       y2="100%"
       gradientUnits="objectBoundingBox">
      <stop
         offset="0%"
         style="stop-color:#ff0844"
         id="stop1" />
      <stop
         offset="100%"
         style="stop-color:#e3937a"
         id="stop2" />
    </linearGradient>
  </defs>
  <style
     id="style2" />
  <g
     transform="translate(392.8610498295258, 319.9810381607016) scale(1.422137947380896)"
     id="g8">
    <g
       transform="translate(51.12820512820511, 0) scale(1 1) rotate(0)"
       fill="url(#stgra_8381)"
       id="g6">
      <svg
         width="400.0"
         height="295.0"
         viewBox="0 0 400 295"
         version="1.1"
         id="svg5">
        <defs
           id="defs5">
          <linearGradient
             id="stgra_8381"
             x1="0%"
             y1="0%"
             x2="0%"
             y2="100%"
             gradientUnits="userSpaceOnUse">
            <stop
               offset="0%"
               style="stop-color:#ff5858"
               id="stop3" />
            <stop
               offset="50%"
               style="stop-color:#f09819"
               id="stop4" />
            <stop
               offset="100%"
               style="stop-color:#f00"
               id="stop5" />
          </linearGradient>
        </defs>
        <g
           stroke="none"
           id="g5">
          <path
             d="M 11.678832116788328,0.3835645252510176 C 11.678832116788328,0.7485280289006653 14.525547445255484,2.7193309486087287 17.956204379562053,4.763126569046648 L 24.23357664233575,8.631739707732834 L 59.05109489051097,8.631739707732834 L 93.79562043795622,8.631739707732834 L 100.14598540145991,13.52225065663788 C 103.64963503649633,16.29597328437518 106.49635036496355,18.70473240846269 106.49635036496355,18.996703211382396 C 106.5693430656934,19.361666715032015 101.38686131386865,19.580644817221867 95.10948905109487,19.653637517951722 C 88.75912408759123,19.653637517951722 64.89051094890513,19.799622919411604 41.970802919708035,19.945608320871486 L 0.36496350364961927,20.237579123791193 L 0.36496350364961927,27.390863795324037 L 0.36496350364961927,34.54414846685694 L 98.029197080292,34.763126569046676 C 157.5912408759124,34.83611926977659 195.62043795620437,35.201082773426265 195.62043795620437,35.566046277075884 C 195.62043795620437,36.879914890214536 183.94160583941604,46.952907590944506 181.970802919708,47.39086379532398 C 180.80291970802924,47.682834598243744 145.54744525547446,47.90181270043354 103.50364963503651,47.97480540116345 C 61.38686131386862,47.97480540116345 27.00729927007299,48.33976890481307 27.00729927007299,48.63173970773278 C 27.00729927007299,48.99670321138245 33.35766423357663,55.128090072696295 41.094890510948915,62.35436744495911 C 48.75912408759126,69.50765211649195 59.05109489051097,79.28867401430216 63.94160583941607,84.03319956174738 L 72.7007299270073,92.5733455471489 L 85.83941605839416,92.42736014568902 L 98.90510948905111,92.20838204349923 L 99.12408759124091,83.66823605809776 C 99.27007299270073,78.12079080262328 99.63503649635035,74.98210467123647 100.21897810218977,74.47115576612691 C 101.60583941605844,73.37626525517805 141.0948905109489,61.18648423328028 143.28467153284672,61.18648423328028 C 144.37956204379563,61.18648423328028 144.52554744525546,63.011301751528435 144.67153284671534,77.02590029167436 C 144.89051094890513,91.91641124057958 144.96350364963504,92.93830905079852 146.20437956204378,92.71933094860867 C 146.93430656934308,92.5733455471489 153.5036496350365,87.39086379532404 160.80291970802918,81.18648423328023 C 168.1021897810219,74.9091119705065 180.94890510948906,64.03319956174738 189.41605839416056,56.95290759094445 C 197.8102189781022,49.87261562014157 207.88321167883217,41.25947693401014 211.6788321167883,37.828819999703626 C 222.33576642335768,28.339768904813127 232.1897810218978,20.09159372233131 232.4817518248175,20.45655722598093 C 233.2116788321168,21.113491532550256 233.06569343065698,216.00400248145536 232.4087591240876,216.6609367880248 C 231.97080291970806,217.09889299240427 217.44525547445252,217.46385649605395 194.16058394160584,217.53684919678398 C 162.04379562043798,217.7558272989737 156.5693430656934,217.9018127004336 156.7883211678832,218.77772510919266 C 156.93430656934308,219.36166671503213 157.5182481751825,221.69743313838973 158.17518248175188,223.88721416028756 C 158.75912408759123,226.1499878829153 159.48905109489053,231.7704258391197 159.70802919708032,236.3689659851051 L 160.21897810218977,244.76312656904668 L 200.51094890510953,244.76312656904668 L 240.87591240875915,244.76312656904668 L 241.1678832116788,237.09889299240433 C 241.75182481751827,223.8142214595576 246.13138686131387,210.67553532817072 252.84671532846713,201.84341853984967 L 255.47445255474454,198.41276160554304 L 255.47445255474454,99.2886740143021 L 255.47445255474454,0.23757912379122104 L 133.57664233576642,0.018601021601398315 C 66.56934306569346,-0.05439167912857101 11.678832116788328,0.09159372233133922 11.678832116788328,0.3835645252510176"
             id="i1"
             class="c1" />
          <path
             d="M 267.5182481751825,43.15728715298826 C 266.9343065693431,44.47115576612691 267.44525547445255,185.05509737196644 267.9562043795621,185.56604627707588 C 268.24817518248176,185.8580170799956 270.8759124087592,184.76312656904668 273.79562043795625,183.1572871529882 C 280.2189781021898,179.7266302186817 288.32116788321173,176.8799148902146 294.8905109489051,175.85801707999553 C 297.66423357664235,175.42006087561606 314.3065693430657,175.05509737196638 335.40145985401455,175.05509737196638 L 371.1678832116788,174.98210467123647 L 371.1678832116788,180.67553532817084 L 371.1678832116788,186.3689659851051 L 355.3284671532847,186.58794408729483 C 346.5693430656935,186.6609367880248 339.4160583941606,187.02590029167442 339.4160583941606,187.39086379532404 C 339.4160583941606,187.75582729897366 340.5839416058394,188.92371051065254 341.97080291970804,189.9456083208715 C 350.1459854014598,196.2229805836452 357.66423357664235,206.441958685835 361.1678832116788,216.07699518218539 C 363.94160583941607,223.74122875882773 364.8905109489051,228.55874700700286 365.5474452554745,237.53684919678386 L 366.05839416058393,244.76312656904668 L 382.8467153284671,244.76312656904668 L 399.6350364963504,244.76312656904668 L 399.8540145985402,187.90181270043348 L 400.0,131.04049883182034 L 379.12408759124094,89.72663021868175 C 367.5912408759124,67.02590029167442 357.3722627737226,47.02590029167436 356.42335766423355,45.27407547415612 L 354.59854014598545,42.20838204349923 L 311.2408759124088,42.20838204349923 C 277.00729927007296,42.20838204349923 267.7372262773723,42.42736014568902 267.5182481751825,43.15728715298826 M 343.6496350364964,79.21568131357219 C 357.88321167883214,105.9310097807255 369.27007299270076,128.04779810189342 369.48905109489056,129.43465941576204 C 369.70802919708024,130.89451343036058 369.27007299270076,130.89451343036058 331.021897810219,130.89451343036058 L 292.33576642335765,130.89451343036058 L 292.11678832116786,99.87261562014157 C 292.043795620438,82.7923236493387 292.11678832116786,68.41276160554304 292.33576642335765,67.90181270043348 C 292.55474452554745,67.24487839386416 297.81021897810217,67.02590029167442 314.8905109489052,67.02590029167442 L 337.08029197080293,67.02590029167442 L 343.6496350364964,79.21568131357219 M 371.1678832116788,153.88721416028756 L 371.1678832116788,159.36166671503207 L 348.5401459854014,159.58064481722187 L 325.9124087591241,159.72663021868175 L 318.7591240875913,154.47115576612697 C 314.8905109489052,151.55144773692984 311.67883211678827,148.92371051065254 311.67883211678827,148.55874700700292 C 311.67883211678827,148.26677620408316 325.03649635036504,148.12079080262328 341.4598540145986,148.1937835033533 L 371.1678832116788,148.41276160554304 L 371.1678832116788,153.88721416028756"
             id="i2"
             class="c2" />
          <path
             d="M 218.17518248175182,47.09889299240433 C 217.5912408759124,47.75582729897366 212.18978102189786,52.57334554714885 206.13138686131387,57.828819999703626 C 173.6496350364964,85.85801707999559 167.22627737226279,91.5514477369299 167.22627737226279,91.98940394130943 C 167.15328467153282,92.35436744495905 170.58394160583944,92.5733455471489 174.74452554744525,92.5733455471489 C 178.97810218978103,92.5733455471489 182.55474452554748,92.86531635006855 182.84671532846713,93.23027985371823 C 183.28467153284672,94.03319956174744 178.46715328467153,124.54414846685688 169.05109489051094,179.79962291941166 L 167.44525547445258,189.28867401430216 L 151.97080291970806,189.5076521164919 C 143.43065693430654,189.58064481722187 136.4963503649635,189.79962291941166 136.4963503649635,190.01860102160146 C 136.4963503649635,190.16458642306134 138.3941605839416,192.20838204349923 140.72992700729927,194.54414846685694 C 143.06569343065692,196.87991489021454 146.13138686131387,200.16458642306128 147.5182481751825,201.84341853984967 L 149.99999999999997,204.98210467123647 L 185.40145985401458,204.98210467123647 L 220.80291970802918,205.05509737196633 L 221.02189781021903,125.42006087561606 C 221.16788321167886,41.62444043765976 221.24087591240877,43.30327255444814 218.17518248175182,47.09889299240433"
             id="i3"
             class="c2" />
          <path
             d="M 0.2189781021897943,48.41276160554304 C 0.07299270072994091,48.850717809922514 0.07299270072994091,53.81422145955764 0.1459854014598534,59.36166671503207 L 0.36496350364961927,69.58064481722187 L 15.912408759124105,69.7996229194116 C 24.37956204379563,69.87261562014157 31.38686131386862,69.7996229194116 31.38686131386862,69.58064481722187 C 31.38686131386862,69.21568131357225 22.919708029197096,60.96750613109043 12.846715328467155,51.69743313838978 C 8.759124087591232,47.82881999970357 8.467153284671554,47.682834598243744 4.598540145985396,47.682834598243744 C 2.3357664233576827,47.682834598243744 0.4379562043795886,48.04779810189342 0.2189781021897943,48.41276160554304"
             id="i4"
             class="c1" />
          <path
             d="M 121.53284671532847,79.72663021868169 L 112.04379562043798,82.7923236493387 L 112.04379562043798,87.463856496054 L 112.04379562043798,92.20838204349923 L 122.26277372262771,92.20838204349923 L 132.4817518248175,92.20838204349923 L 132.33576642335768,84.54414846685688 C 132.26277372262777,80.3105718245211 131.89781021897815,76.80692218948462 131.6058394160584,76.73392948875471 C 131.31386861313868,76.66093678802474 126.78832116788325,78.04779810189342 121.53284671532847,79.72663021868169"
             id="i5"
             class="c3" />
          <path
             d="M 0.4379562043795886,82.86531635006855 C 0.2189781021897943,83.15728715298832 0.0,85.85801707999559 0.0,88.92371051065254 L 0.0,94.54414846685688 L 7.299270072992698,99.58064481722187 C 11.31386861313868,102.35436744495911 19.63503649635038,108.04779810189336 25.839416058394193,112.2813747442292 C 32.11678832116789,116.51495138656492 37.15328467153287,120.16458642306128 37.226277372262786,120.45655722598093 C 37.226277372262786,120.74852802890075 28.905109489051114,121.11349153255037 18.832116788321173,121.18648423328023 L 0.36496350364961927,121.40546233547008 L 0.36496350364961927,149.14268861284233 L 0.36496350364961927,176.8799148902146 L 7.445255474452551,177.09889299240433 L 14.598540145985396,177.31787109459407 L 14.74452554744525,155.56604627707583 L 14.963503649635044,133.81422145955764 L 20.43795620437956,133.81422145955764 C 25.6204379562044,133.81422145955764 25.839416058394193,133.8872141602875 26.350364963503665,135.6390389778058 C 26.642335766423344,136.6609367880248 26.861313868613138,146.3689659851051 26.93430656934308,157.31787109459418 L 27.00729927007299,177.09889299240433 L 49.85401459854015,177.3908637953241 C 62.33576642335768,177.53684919678392 72.84671532846716,177.46385649605395 73.13868613138689,177.2448783938642 C 73.64963503649636,176.8799148902146 70.14598540145988,154.8361192697766 66.49635036496352,136.00400248145547 C 65.25547445255478,129.5806448172218 63.13868613138686,117.90181270043348 61.75182481751827,110.09159372233137 L 59.19708029197082,95.85801707999559 L 52.11678832116792,89.06969591211231 L 45.036496350364956,82.28137474422914 L 22.99270072992701,82.35436744495911 C 10.802919708029208,82.42736014568902 0.6569343065693545,82.64633824787882 0.4379562043795886,82.86531635006855"
             id="i6"
             class="c4" />
          <path
             d="M 73.50364963503654,105.56604627707583 C 72.9197080291971,106.36896598510509 76.20437956204381,121.62444043765981 77.08029197080293,122.50035284641893 C 77.5912408759124,123.01130175152838 81.67883211678836,123.23027985371823 88.75912408759123,123.08429445225835 L 99.63503649635035,122.86531635006861 L 99.99999999999997,118.85071780992263 L 100.36496350364965,114.83611926977665 L 105.83941605839416,114.83611926977665 L 111.31386861313868,114.83611926977665 L 111.6788321167883,118.85071780992263 L 112.04379562043798,122.86531635006861 L 121.8978102189781,122.86531635006861 L 131.75182481751827,122.86531635006861 L 132.1167883211679,118.85071780992263 L 132.4817518248175,114.83611926977665 L 137.95620437956202,114.83611926977665 L 143.43065693430654,114.83611926977665 L 143.79562043795622,118.85071780992263 L 144.16058394160584,122.86531635006861 L 154.81751824817522,123.08429445225835 C 162.77372262773721,123.23027985371823 165.69343065693428,123.01130175152838 166.20437956204384,122.35436744495905 C 167.15328467153282,121.18648423328023 169.56204379562044,106.66093678802474 168.97810218978103,105.71203167853577 C 168.46715328467153,104.83611926977659 74.01459854014601,104.69013386831676 73.50364963503654,105.56604627707583"
             id="i7"
             class="c5" />
          <path
             d="M 78.54014598540147,135.49305357634591 C 78.39416058394164,135.78502437926568 78.90510948905111,139.36166671503202 79.78102189781023,143.30327255444814 L 81.38686131386862,150.60254262744087 L 90.51094890510947,150.60254262744087 L 99.63503649635035,150.60254262744087 L 99.63503649635035,142.93830905079852 L 99.63503649635035,135.27407547415618 L 89.27007299270073,135.05509737196644 C 83.57664233576642,134.9821046712364 78.75912408759126,135.1280900726963 78.54014598540147,135.49305357634591"
             id="i8"
             class="c5" />
          <path
             d="M 111.97080291970806,135.8580170799956 C 111.75182481751827,136.44195868583495 111.75182481751827,139.9456083208715 111.82481751824818,143.74122875882767 L 112.04379562043798,150.60254262744087 L 121.8978102189781,150.60254262744087 L 131.75182481751827,150.60254262744087 L 131.970802919708,142.71933094860879 L 132.1897810218978,134.90911197050656 L 122.26277372262771,134.90911197050656 C 114.7445255474453,134.90911197050656 112.26277372262777,135.1280900726963 111.97080291970806,135.8580170799956"
             id="i9"
             class="c5" />
          <path
             d="M 144.30656934306572,135.42006087561606 C 144.014598540146,135.6390389778058 143.79562043795622,138.92371051065254 143.79562043795622,142.71933094860879 C 143.79562043795622,149.36166671503207 143.86861313868613,149.5806448172218 145.69343065693434,150.2375791237912 C 146.71532846715328,150.67553532817072 150.65693430656935,150.9675061310905 154.45255474452554,150.9675061310905 C 160.94890510948906,150.9675061310905 161.38686131386865,150.89451343036052 162.04379562043798,149.28867401430222 C 162.9197080291971,147.0988929924044 164.30656934306572,136.3689659851051 163.79562043795622,135.56604627707588 C 163.35766423357663,134.8361192697766 145.036496350365,134.6171411675868 144.30656934306572,135.42006087561606"
             id="i10"
             class="c6" />
          <path
             d="M 83.2116788321168,164.25217766393723 C 83.2116788321168,166.1499878829153 85.25547445255475,176.441958685835 85.83941605839416,177.3908637953241 C 86.27737226277375,178.04779810189336 94.45255474452554,178.19378350335325 97.73722627737229,177.53684919678392 L 100.07299270072994,177.02590029167447 L 99.85401459854015,170.01860102160134 L 99.63503649635035,163.01130175152844 L 91.45985401459856,162.7923236493387 C 83.28467153284672,162.57334554714885 83.2116788321168,162.64633824787882 83.2116788321168,164.25217766393723"
             id="i11"
             class="c7" />
          <path
             d="M 112.18978102189786,163.0842944522583 C 111.45985401459856,163.8142214595576 111.53284671532847,176.36896598510504 112.26277372262777,176.80692218948462 C 112.62773722627739,177.02590029167447 117.15328467153282,177.2448783938642 122.33576642335768,177.31787109459407 L 131.75182481751827,177.3908637953241 L 131.75182481751827,170.2375791237912 L 131.75182481751827,163.01130175152844 L 122.18978102189786,162.7923236493387 C 117.00729927007299,162.71933094860867 112.48175182481751,162.86531635006855 112.18978102189786,163.0842944522583"
             id="i12"
             class="c6" />
          <path
             d="M 144.014598540146,163.8142214595576 C 143.35766423357668,165.56604627707588 144.30656934306572,175.85801707999553 145.25547445255475,176.80692218948462 C 146.20437956204378,177.7558272989737 156.13138686131387,178.33976890481313 157.007299270073,177.46385649605395 C 157.8102189781022,176.6609367880248 159.92700729927006,164.10619226247735 159.41605839416061,163.23027985371817 C 159.19708029197082,162.93830905079852 155.76642335766425,162.64633824787882 151.75182481751827,162.64633824787882 C 145.76642335766425,162.64633824787882 144.37956204379563,162.86531635006855 144.014598540146,163.8142214595576"
             id="i13"
             class="c6" />
          <path
             d="M 90.07299270072994,188.92371051065254 C 83.50364963503651,189.79962291941166 79.78102189781023,190.96750613109043 74.45255474452554,193.66823605809776 C 61.31386861313868,200.456557225981 51.605839416058416,212.71933094860867 48.540145985401466,226.58794408729477 C 46.64233576642337,234.76312656904668 47.2992700729927,248.04779810189342 49.781021897810206,255.2010827734262 C 52.62773722627739,263.1572871529883 57.59124087591243,270.456557225981 64.67153284671534,277.1718856931343 C 68.1021897810219,280.383564525251 70.7299270072993,283.37626525517805 70.5109489051095,283.6682360580977 C 70.2919708029197,284.03319956174744 57.73722627737229,284.3251703646672 42.55474452554745,284.39816306539706 C 15.255474452554779,284.4711557661269 14.963503649635044,284.5441484668569 13.722627737226276,286.0769951821853 C 12.043795620437947,288.12079080262333 12.043795620437947,290.52954992671096 13.795620437956217,292.6463382478787 L 15.18248175182481,294.39816306539706 L 89.05109489051094,294.39816306539706 L 162.9197080291971,294.39816306539706 L 164.30656934306572,292.6463382478787 C 166.05839416058396,290.52954992671096 166.05839416058396,288.12079080262333 164.45255474452554,286.0769951821853 C 163.2116788321168,284.61714116758674 162.4087591240876,284.5441484668569 144.30656934306572,284.2521776639371 C 133.94160583941604,284.1061922624773 125.25547445255475,283.81422145955764 124.96350364963504,283.5222506566379 C 124.74452554744525,283.23027985371823 125.62043795620437,282.1353893427694 127.00729927007299,281.11349153255026 C 131.82481751824818,277.5368491967839 137.95620437956202,270.6025426274408 141.02189781021903,265.34706817488615 C 145.54744525547446,257.6098418975138 147.59124087591246,250.60254262744087 147.95620437956208,241.4784550362 C 148.3941605839416,231.7704258391197 147.0802919708029,225.20108277342626 142.992700729927,216.80692218948468 C 138.75912408759123,208.04779810189342 129.27007299270073,198.4857543062729 120.58394160583944,194.1061922624773 C 117.29927007299275,192.42736014568897 112.84671532846718,190.67553532817078 110.72992700729932,190.0915937223313 C 105.54744525547446,188.7047324084628 95.54744525547446,188.19378350335325 90.07299270072994,188.92371051065254 M 106.27737226277375,221.98940394130943 C 114.30656934306572,226.1499878829153 118.5401459854015,236.29597328437512 116.05839416058396,245.2010827734262 C 115.03649635036496,248.85071780992251 110.14598540145985,254.17918496320726 105.98540145985405,256.14998788291524 C 101.31386861313868,258.4127616055431 94.37956204379563,258.4127616055431 89.63503649635035,256.14998788291524 C 83.28467153284672,253.08429445225835 78.90510948905111,246.29597328437507 78.83211678832117,239.58064481722187 C 78.83211678832117,230.96750613109043 83.2116788321168,224.6171411675868 91.60583941605839,221.25947693401014 C 94.52554744525546,220.01860102160134 103.4306569343066,220.45655722598104 106.27737226277375,221.98940394130943"
             id="i14"
             class="c7" />
          <path
             d="M 291.6058394160584,189.65363751795178 C 281.3868613138686,191.8434185398496 275.2554744525547,195.2010827734262 267.5182481751825,203.08429445225835 C 256.64233576642334,214.03319956174738 252.992700729927,223.23027985371823 252.992700729927,239.28867401430216 C 253.06569343065698,249.7266302186817 254.59854014598542,255.78502437926562 259.48905109489056,264.47115576612697 C 262.4087591240876,269.7996229194116 270.8759124087592,279.2156813135723 274.8905109489051,281.69743313838967 C 276.2773722627737,282.500352846419 277.3722627737226,283.449257955908 277.3722627737226,283.81422145955764 C 277.3722627737226,284.17918496320726 266.42335766423355,284.4711557661269 253.1386861313869,284.4711557661269 C 229.3430656934307,284.5441484668569 228.83211678832114,284.61714116758674 227.59124087591246,286.0769951821853 C 225.83941605839416,288.1937835033533 225.91240875912408,291.33246963474005 227.8102189781022,293.0113017515283 C 229.27007299270073,294.3251703646671 231.6788321167883,294.39816306539706 298.02919708029196,294.4711557661269 C 335.83941605839414,294.4711557661269 369.8540145985402,294.3251703646671 373.57664233576645,294.17918496320726 C 380.2189781021898,293.81422145955764 380.3649635036496,293.7412287588277 381.4598540145985,291.69743313838967 C 382.7007299270073,289.361666715032 382.33576642335765,287.5368491967838 380.4379562043796,285.7850243792657 C 379.1970802919708,284.61714116758674 366.9343065693431,284.1061922624773 336.7153284671533,283.8872141602875 C 332.99270072992704,283.81422145955764 329.92700729927003,283.59524335736785 329.92700729927003,283.23027985371823 C 329.92700729927003,282.93830905079847 331.8248175182482,281.40546233547013 334.01459854014604,279.7996229194116 C 341.53284671532845,274.471155766127 348.24817518248176,264.83611926977665 351.53284671532845,254.8361192697766 C 353.4306569343066,248.9967032113824 353.6496350364963,247.53684919678386 353.57664233576645,238.55874700700292 C 353.57664233576645,229.94560832087154 353.2846715328467,227.97480540116345 351.6058394160584,222.79232364933864 C 346.05839416058393,206.00400248145542 330.5839416058395,192.20838204349923 314.01459854014604,189.21568131357225 C 306.42335766423366,187.90181270043348 299.48905109489056,188.04779810189336 291.6058394160584,189.65363751795178 M 312.11678832116786,221.98940394130943 C 313.4306569343066,222.64633824787882 315.4744525547445,224.25217766393718 316.7153284671533,225.49305357634591 C 328.8321167883212,237.6098418975139 320.6569343065694,257.5368491967839 303.57664233576645,257.5368491967839 C 296.7153284671533,257.5368491967839 291.8978102189782,254.98210467123647 287.956204379562,249.2156813135722 C 285.18248175182487,245.2010827734262 285.0364963503649,244.76312656904668 285.0364963503649,239.43465941576204 C 285.0364963503649,235.05509737196644 285.40145985401455,233.1572871529882 286.64233576642334,230.8215207296306 C 288.6131386861315,227.17188569313424 293.94160583941607,222.2813747442292 297.22627737226276,221.18648423328028 C 300.51094890510956,220.09159372233137 309.34306569343073,220.5295499267109 312.11678832116786,221.98940394130943"
             id="i15"
             class="c8" />
          <path
             d="M 0.2919708029197068,190.6025426274408 C 0.07299270072994091,191.18648423328023 0.0,194.54414846685694 0.1459854014598534,198.12079080262328 L 0.36496350364961927,204.61714116758685 L 22.773722627737214,204.8361192697766 L 45.18248175182484,204.98210467123647 L 47.44525547445255,201.69743313838978 C 48.68613138686129,199.87261562014157 51.459854014598534,196.5879440872949 53.57664233576645,194.39816306539706 C 55.76642335766425,192.20838204349923 57.2992700729927,190.3105718245211 57.153284671532845,190.0915937223313 C 56.93430656934305,189.87261562014157 44.160583941605836,189.72663021868163 28.75912408759126,189.65363751795178 C 5.912408759124105,189.65363751795178 0.5839416058394136,189.79962291941166 0.2919708029197068,190.6025426274408"
             id="i16"
             class="c1" />
          <path
             d="M 0.2919708029197068,218.41276160554304 C 0.07299270072994091,218.92371051065248 0.0,221.47845503619993 0.1459854014598534,224.03319956174738 L 0.36496350364961927,228.70473240846275 L 8.24817518248176,228.92371051065248 C 15.620437956204398,229.14268861284222 17.44525547445258,229.65363751795178 15.036496350364985,231.04049883182046 C 13.138686131386862,232.06239664203935 0.729927007299267,243.74122875882767 0.729927007299267,244.4711557661269 C 0.729927007299267,244.90911197050656 7.372262773722639,245.05509737196638 17.737226277372258,244.9821046712364 L 34.67153284671534,244.76312656904668 L 34.8905109489051,241.4784550362 C 35.25547445255475,234.54414846685688 36.56934306569343,226.07699518218539 37.88321167883214,222.2813747442292 C 38.68613138686132,220.01860102160134 39.12408759124088,218.04779810189336 38.905109489051114,217.82881999970357 C 38.61313868613141,217.60984189751383 29.92700729927006,217.39086379532404 19.56204379562044,217.39086379532404 C 4.37956204379563,217.39086379532404 0.5839416058394136,217.60984189751383 0.2919708029197068,218.41276160554304"
             id="i17"
             class="c1" />
        </g>
      </svg>
    </g>
    <g
       transform="translate(16.641025641025642, 545.75) rotate(0)"
       id="g7">
      <path
         d="m 275.25012,-25.5 q 5.85,0 8.85,-0.6 3,-0.6 4.2,-2.25 1.2,-1.65 1.2,-4.65 0,-3.15 -1.65,-9.45 -2.1,-8.4 -2.1,-13.05 0,-6.9 3.9,-10.95 3.9,-4.05 11.1,-4.05 6.45,0 11.1,3.9 4.65,3.75 6.15,11.1 2.25,11.25 2.25,25.5 0,14.55 -11.55,22.35 -11.55,7.65 -33.45,7.65 -1.2,0 -1.8,-0.9 -0.6,-0.9 -0.9,-3.6 -0.3,-2.7 -0.3,-8.25 0,-5.55 0.3,-8.25 0.3,-2.7 0.9,-3.6 0.6,-0.9 1.8,-0.9 z m -0.6,47.25 q 0,-5.4 3,-7.95 3.15,-2.55 9.6,-2.55 6.45,0 9.45,2.55 3.15,2.55 3.15,7.95 v 1.65 q 0,5.25 -3.15,7.8 -3,2.55 -9.45,2.55 -6.45,0 -9.6,-2.55 -3,-2.55 -3,-7.8 z M 275.25014,0 q -9.3,0 -15,-3.6 -5.7,-3.6 -7.5,-9.9 -2.1,6.45 -8.4,10.05 -6.15,3.45 -13.35,3.45 -1.2,0 -1.8,-0.9 -0.6,-0.9 -0.9,-3.6 -0.3,-2.7 -0.3,-8.25 0,-5.55 0.3,-8.25 0.3,-2.7 0.9,-3.6 0.6,-0.9 1.8,-0.9 4.35,0 5.85,-3.6 1.65,-3.6 1.65,-12.9 0,-6.75 -1.65,-22.65 -2.1,-20.1 -2.1,-29.1 0,-11.55 4.5,-17.4 4.65,-5.85 12.75,-5.85 7.35,0 11.55,5.7 4.2,5.55 4.2,16.05 v 55.5 q 0,5.55 0.3,8.4 0.45,2.7 1.95,4.35 1.65,1.5 5.25,1.5 z m -68.10012,-30 q 3.75,2.25 9.3,3.45 5.55,1.05 14.55,1.05 V 0 q -17.4,0 -27.45,-3.3 -10.05,-3.45 -16.5,-11.1 -14.1,8.55 -30,11.55 -15.75,2.85 -37.95,2.85 -1.65,0 -2.25,-2.55 -0.6,-2.55 -0.6,-10.2 0,-7.65 0.6,-10.2 0.6,-2.55 2.4,-2.55 16.65,0 27.45,-1.5 10.8,-1.65 18.45,-4.95 7.65,-3.45 15.3,-9.45 -9.75,-5.25 -14.7,-7.35 -4.8,-2.25 -9,-2.25 -5.1,0 -7.05,3.9 -1.8,3.75 -1.2,9.6 0.3,3.15 -2.1,4.95 -2.25,1.8 -5.85,1.8 -4.05,0 -8.1,-2.1 -4.05,-2.25 -6.75,-6.6 -2.7,-4.5 -2.7,-10.8 0,-7.35 3.45,-13.35 3.45,-6 9.75,-9.45 6.45,-3.45 14.55,-3.45 9.9,0 18.15,3.15 8.4,3.15 18.9,9 1.2,0.6 5.7,3 4.65,2.4 8.4,3.75 5.55,-2.4 11.85,-2.4 6.6,0 10.05,4.05 3.45,4.05 3.45,8.7 0,5.85 -3.9,9.9 -3.75,3.9 -11.55,5.1 l -2.7,0.3 z m -45.6,-62.85 q 0,5.4 -3,7.95 -2.85,2.4 -9.3,2.4 -6.45,0 -9.45,-2.4 -2.85,-2.55 -2.85,-7.95 v -1.65 q 0,-5.4 2.85,-7.95 3,-2.55 9.45,-2.55 6.45,0 9.3,2.55 3,2.55 3,7.95 z M 119.25014,0 q -9.15,0 -15.15,-3.3 -5.849999,-3.3 -8.099999,-9.45 -3.9,6.6 -12.15,9.75 -8.25,3 -21.6,3 -1.2,0 -1.8,-0.9 -0.6,-0.9 -0.9,-3.6 -0.3,-2.7 -0.3,-8.25 0,-5.55 0.3,-8.25 0.3,-2.7 0.9,-3.6 0.6,-0.9 1.8,-0.9 10.05,0 14.4,-2.1 4.35,-2.25 4.35,-6.9 0,-2.1 -0.3,-5.1 -0.45,-2.7 -0.45,-6.9 0,-7.2 4.05,-11.1 4.05,-3.9 11.7,-3.9 7.499999,0 11.549999,4.8 4.2,4.65 4.2,13.95 v 5.25 q 0,7.05 1.5,9.6 1.5,2.4 6,2.4 z M 98.250141,24.75 q 0,10.65 -8.55,9.9 -0.45,0 -4.35,-0.45 -3.9,-0.45 -9.6,-0.45 -5.7,0 -15.15,1.05 -3.9,0.3 -5.55,-1.65 -1.8,-1.8 -1.8,-6.9 0,-7.5 5.25,-10.5 5.1,-3 18,-3 12,0 16.8,2.55 4.95,2.7 4.95,9.45 z M 62.250004,0 q -5.4,0 -10.65,-0.9 -3,18.3 -15.9,28.65 -12.75,10.5 -32.7000002,10.5 -5.85,0 -9.6,-2.85 -3.8999998,-2.7 -3.8999998,-7.65 0,-3.45 2.0999998,-6 1.95,-2.4 6.9,-4.5 11.8500002,-4.8 16.8000002,-12.3 4.95,-7.5 4.95,-19.95 0,-4.05 -0.75,-10.05 -4.5,-9 -4.5,-20.7 0,-6.75 3.75,-10.8 3.75,-4.2 9.75,-4.2 8.7,0 14.7,9.15 6,9 8.25,24 4.2,2.1 10.8,2.1 z"
         id="text6"
         style="font-size:150px;font-family:f44974;direction:rtl;text-anchor:end;fill:url(#stgra_6738)"
         transform="scale(1.5128205)"
         aria-label="بلخير" />
    </g>
  </g>
</svg>
